<svg width="228" height="38" viewBox="0 0 228 38" fill="none" xmlns="http://www.w3.org/2000/svg">
<path d="M217.077 5.47954V0.765057H214.698V0H220.297V0.765057H217.91V5.47954H217.074H217.077Z" fill="white"/>
<path d="M221.349 5.47954V0H222.615L224.211 3.43009C224.247 3.50863 224.292 3.61249 224.346 3.74169C224.399 3.87089 224.454 4.00262 224.51 4.13942C224.566 4.27875 224.614 4.40288 224.657 4.51435H224.71C224.751 4.41302 224.796 4.29902 224.847 4.17235C224.898 4.04569 224.951 3.91649 225.009 3.78476C225.065 3.65556 225.113 3.54156 225.156 3.4453L226.752 0H228.001V5.47954H227.165V1.95571C227.165 1.85945 227.165 1.75051 227.17 1.62892C227.173 1.50732 227.175 1.38318 227.178 1.26158C227.18 1.13999 227.183 1.03359 227.183 0.94239H227.13C227.099 1.01586 227.064 1.10452 227.023 1.20585C226.983 1.30719 226.942 1.40852 226.902 1.51238C226.861 1.61625 226.821 1.70745 226.78 1.78851L225.078 5.48207H224.257L222.547 1.78851C222.501 1.68718 222.456 1.58332 222.413 1.47692C222.37 1.37052 222.329 1.27172 222.294 1.17799C222.258 1.08426 222.228 1.00572 222.202 0.94239H222.142C222.147 1.02852 222.149 1.12732 222.154 1.24639C222.154 1.36292 222.157 1.48452 222.157 1.60865V5.47954H221.359H221.349Z" fill="white"/>
<path d="M45.5995 30.4022H7.59992V22.8022H37.9996V15.2023H0V38.0021H45.5995V30.4022Z" fill="white"/>
<path d="M45.5995 0.00253296H0V7.60245H45.5995V0.00253296Z" fill="white"/>
<path d="M87.3988 38.0021H53.1992V0.00253296H87.3988C97.8766 0.00253296 106.399 8.52457 106.399 19.0023C106.399 29.4801 97.8766 38.0021 87.3988 38.0021ZM60.7991 30.4022H87.3988C93.684 30.4022 98.7987 25.2874 98.7987 19.0023C98.7987 12.7172 93.684 7.60245 87.3988 7.60245H60.7991V30.4022Z" fill="white"/>
<path d="M167.198 11.4024C167.198 5.11727 162.084 0.00253296 155.799 0.00253296H113.999V7.60245H155.799C157.894 7.60245 159.599 9.30736 159.599 11.4024C159.599 13.4974 157.894 15.2024 155.799 15.2024H113.999V38.0021H155.799C162.084 38.0021 167.198 32.8874 167.198 26.6022C167.198 23.6839 166.096 21.0214 164.285 19.0023C166.094 16.9833 167.198 14.3208 167.198 11.4024ZM155.799 30.4022H121.599V22.8023H155.799C157.894 22.8023 159.599 24.5072 159.599 26.6022C159.599 28.6973 157.894 30.4022 155.799 30.4022Z" fill="white"/>
<path d="M194.322 0.00253296L168.196 38.0021H177.42L198.834 6.85259L218.951 38.0021H227.997L203.457 0.00253296H194.322Z" fill="white"/>
</svg>
