<svg width="129" height="30" viewBox="0 0 129 30" fill="none" xmlns="http://www.w3.org/2000/svg">
<path d="M5.5606 11.1148C4.33702 11.1148 3.31103 10.9043 2.48264 10.4804C1.65425 10.0593 1.03359 9.43349 0.620659 8.60579C0.20773 7.77808 0 6.76004 0 5.54877C0 3.77801 0.476261 2.40811 1.42625 1.44487C2.37624 0.481618 3.74929 0 5.5454 0C6.56633 0 7.46565 0.173032 8.24591 0.516226C9.02617 0.859419 9.63163 1.35547 10.0674 2.00148C10.5031 2.64749 10.7209 3.42904 10.7209 4.34615H8.75257C8.75257 3.82415 8.61577 3.39155 8.34217 3.03971C8.06858 2.69074 7.69111 2.42831 7.20725 2.2495C6.72339 2.07358 6.15593 1.98417 5.50487 1.98417C4.80061 1.98417 4.19009 2.11683 3.67583 2.38216C3.16157 2.64749 2.7613 3.03106 2.48011 3.52998C2.19891 4.02891 2.05704 4.63455 2.05704 5.34401V5.73334C2.05704 6.45145 2.19891 7.06574 2.48011 7.57044C2.7613 8.07514 3.16156 8.46158 3.68089 8.72691C4.20022 8.99223 4.81074 9.1249 5.51754 9.1249C6.22433 9.1249 6.77912 9.03838 7.26805 8.86823C7.75698 8.69519 8.13444 8.43563 8.40297 8.08667C8.6715 7.7377 8.80577 7.30799 8.80577 6.79753H10.7336C10.7336 7.69444 10.5183 8.46447 10.0876 9.11048C9.65696 9.75649 9.05403 10.2525 8.27884 10.5957C7.50365 10.9389 6.59673 11.112 5.55807 11.112L5.5606 11.1148Z" fill="white"/>
<path d="M20.0409 11.1148C18.906 11.1148 17.9661 10.9072 17.2213 10.489C16.4766 10.0737 15.9218 9.47963 15.557 8.71537C15.1922 7.94824 15.0098 7.04554 15.0098 6.00443V0.190338H17.0161V5.89484C17.0161 6.92731 17.2771 7.72328 17.8015 8.28566C18.3259 8.84803 19.0707 9.13067 20.0409 9.13067C21.0112 9.13067 21.756 8.84803 22.2778 8.28566C22.7997 7.72328 23.0631 6.92442 23.0631 5.89484V0.190338H25.0695V6.00443C25.0695 7.04554 24.8871 7.95112 24.5223 8.71537C24.1575 9.48251 23.6053 10.0737 22.8655 10.489C22.1258 10.9072 21.1834 11.1148 20.0409 11.1148Z" fill="white"/>
<path d="M32.9069 10.9274V2.2841H28.8789V0.190338H38.9412V2.2841H34.9132V10.9274H32.9069Z" fill="white"/>
<path d="M46.3756 10.9274V2.2841H42.3477V0.190338H52.4099V2.2841H48.382V10.9274H46.3756Z" fill="white"/>
<path d="M56.2539 10.9274V0.187439H58.2603V10.9274H56.2539Z" fill="white"/>
<path d="M63.1348 10.9274V0.187439H65.0221L69.9874 5.83138C70.1014 5.94674 70.2381 6.10247 70.3977 6.30147C70.5573 6.50046 70.722 6.70234 70.8943 6.90999C71.0665 7.11763 71.2135 7.3051 71.3376 7.47237H71.444C71.4339 7.24453 71.4237 6.96478 71.4111 6.63601C71.3984 6.30723 71.3908 6.03903 71.3908 5.83138V0.187439H73.3186V10.9274H71.4693L66.4914 5.22286C66.2533 4.95177 66.005 4.65183 65.7441 4.32306C65.4831 3.99429 65.2754 3.73185 65.1158 3.53285H65.0246C65.0322 3.6684 65.0423 3.90489 65.0499 4.2452C65.0575 4.58262 65.0626 4.97195 65.0626 5.41032V10.9274H63.1348Z" fill="white"/>
<path d="M83.2363 11.1148C81.4048 11.1148 80.0317 10.6563 79.1172 9.73919C78.2001 8.82208 77.7441 7.432 77.7441 5.56607C77.7441 4.34615 77.9772 3.32234 78.4433 2.49464C78.9095 1.66694 79.5859 1.04399 80.47 0.625818C81.3541 0.210525 82.413 0 83.6467 0C84.4473 0 85.1794 0.0807503 85.8381 0.242253C86.4992 0.403756 87.0692 0.64889 87.548 0.977664C88.0268 1.30644 88.3967 1.71885 88.6576 2.22066C88.916 2.71958 89.0477 3.3108 89.0477 3.98565H87.0946C87.0946 3.61073 87.0008 3.2935 86.8184 3.03105C86.6335 2.7715 86.3827 2.56385 86.066 2.41389C85.7494 2.26392 85.3897 2.15433 84.9894 2.08511C84.5891 2.01878 84.1686 1.98417 83.7278 1.98417C83.1654 1.98417 82.6436 2.05051 82.1622 2.18029C81.6834 2.31006 81.2654 2.51482 80.9133 2.7888C80.5612 3.06566 80.2876 3.41751 80.095 3.84434C79.9025 4.27117 79.8037 4.77587 79.8037 5.36131V5.73623C79.8037 6.54951 79.9532 7.20417 80.2521 7.69734C80.551 8.19338 80.9766 8.55387 81.5264 8.78459C82.0761 9.01531 82.7246 9.12779 83.4745 9.12779C84.3029 9.12779 84.9818 9.03838 85.5138 8.86246C86.0458 8.68653 86.4435 8.42986 86.7019 8.09532C86.9603 7.76078 87.092 7.37145 87.092 6.92155V6.79753H83.4213V4.92294H89.0604V10.9245H87.8191L87.6088 9.51712C87.282 9.89204 86.8944 10.1977 86.441 10.4313C85.9875 10.6649 85.491 10.838 84.9489 10.9476C84.4067 11.0572 83.8367 11.112 83.2389 11.112L83.2363 11.1148Z" fill="white"/>
<path d="M4.02795 28.9548V20.3115H0V18.2177H10.0623V20.3115H6.03434V28.9548H4.02795Z" fill="white"/>
<path d="M13.9082 28.9547V18.2148H15.9146V22.434H22.0806V18.2148H24.087V28.9547H22.0806V24.5307H15.9146V28.9547H13.9082Z" fill="white"/>
<path d="M28.957 28.9547V18.2148H38.1352V20.199H30.9659V22.4975H37.3448V24.4817H30.9659V26.9677H38.2416V28.9518H28.9596L28.957 28.9547Z" fill="white"/>
<path d="M49.3184 28.9547V18.2148H57.9544V20.199H51.3247V22.7945H57.3211V24.7787H51.3247V28.9518H49.3184V28.9547Z" fill="white"/>
<path d="M66.9452 29.1422C65.8103 29.1422 64.8704 28.9346 64.1256 28.5164C63.3809 28.1011 62.8261 27.507 62.4613 26.7427C62.0965 25.9756 61.9141 25.0729 61.9141 24.0318V18.2177H63.9205V23.9222C63.9205 24.9547 64.1814 25.7507 64.7058 26.313C65.2302 26.8754 65.975 27.158 66.9452 27.158C67.9155 27.158 68.6603 26.8754 69.1821 26.313C69.704 25.7507 69.9674 24.9518 69.9674 23.9222V18.2177H71.9738V24.0318C71.9738 25.0729 71.7914 25.9785 71.4266 26.7427C71.0618 27.5099 70.5096 28.1011 69.7698 28.5164C69.0301 28.9346 68.0877 29.1422 66.9452 29.1422Z" fill="white"/>
<path d="M79.8131 28.9548V20.3115H75.7852V18.2177H85.8475V20.3115H81.8195V28.9548H79.8131Z" fill="white"/>
<path d="M94.6855 29.1422C93.5505 29.1422 92.6107 28.9346 91.8659 28.5164C91.1211 28.1011 90.5663 27.507 90.2015 26.7427C89.8367 25.9756 89.6543 25.0729 89.6543 24.0318V18.2177H91.6607V23.9222C91.6607 24.9547 91.9216 25.7507 92.446 26.313C92.9704 26.8754 93.7152 27.158 94.6855 27.158C95.6557 27.158 96.4005 26.8754 96.9223 26.313C97.4442 25.7507 97.7077 24.9518 97.7077 23.9222V18.2177H99.7141V24.0318C99.7141 25.0729 99.5317 25.9785 99.1669 26.7427C98.8021 27.5099 98.2498 28.1011 97.5101 28.5164C96.7704 28.9346 95.828 29.1422 94.6855 29.1422Z" fill="white"/>
<path d="M104.494 28.9547V18.2148H111.679C112.322 18.2148 112.846 18.3676 113.257 18.6762C113.667 18.9848 113.971 19.3914 114.174 19.8961C114.377 20.4008 114.478 20.9632 114.478 21.5775C114.478 22.1918 114.339 22.809 114.062 23.3684C113.786 23.9251 113.356 24.3605 112.776 24.6749L114.703 28.9576H112.446L110.782 25.1277H106.503V28.9576H104.497L104.494 28.9547ZM106.501 23.1579H111.121C111.534 23.1579 111.853 23.0137 112.079 22.7282C112.304 22.4427 112.416 22.0735 112.416 21.6265C112.416 21.3237 112.368 21.067 112.271 20.8536C112.175 20.6402 112.028 20.4787 111.836 20.3691C111.641 20.2595 111.405 20.2047 111.121 20.2047H106.501V23.1579Z" fill="white"/>
<path d="M119.09 28.9547V18.2148H128.268V20.199H121.099V22.4975H127.478V24.4817H121.099V26.9677H128.374V28.9518H119.092L119.09 28.9547Z" fill="white"/>
</svg>
