<svg width="1600" height="267" viewBox="0 0 1600 267" fill="none" xmlns="http://www.w3.org/2000/svg">
<g opacity="0.12">
<path d="M1523.34 38.3547V5.3551H1506.65V0H1545.94V5.3551H1529.19V38.3547H1523.32H1523.34Z" fill="white"/>
<path d="M1553.32 38.3546V0H1562.21L1573.41 24.0093C1573.65 24.559 1573.97 25.2861 1574.35 26.1904C1574.72 27.0947 1575.11 28.0168 1575.5 28.9743C1575.89 29.9496 1576.23 30.8185 1576.53 31.5987H1576.91C1577.19 30.8894 1577.51 30.0915 1577.87 29.2049C1578.22 28.3182 1578.6 27.4139 1579 26.4918C1579.4 25.5875 1579.73 24.7896 1580.04 24.1157L1591.24 0H1600V38.3546H1594.13V13.6892C1594.13 13.0154 1594.13 12.2529 1594.17 11.4018C1594.19 10.5506 1594.2 9.68175 1594.22 8.8306C1594.24 7.97946 1594.26 7.23472 1594.26 6.59636H1593.88C1593.67 7.11059 1593.42 7.73122 1593.14 8.44051C1592.85 9.14979 1592.57 9.85908 1592.28 10.5861C1592 11.3131 1591.72 11.9515 1591.43 12.5189L1579.48 38.3724H1573.73L1561.73 12.5189C1561.41 11.8096 1561.09 11.0826 1560.78 10.3378C1560.48 9.5931 1560.2 8.90154 1559.95 8.24545C1559.7 7.58936 1559.49 7.03967 1559.31 6.59636H1558.88C1558.92 7.19926 1558.93 7.8908 1558.97 8.72421C1558.97 9.53989 1558.99 10.391 1558.99 11.2599V38.3546H1553.39H1553.32Z" fill="white"/>
<path d="M319.996 212.804H53.3327V159.608H266.663V106.411H0V266.001H319.996V212.804Z" fill="white"/>
<path d="M319.996 0.0175781H0V53.214H319.996V0.0175781Z" fill="white"/>
<path d="M613.325 266H373.328V0.0175781H613.325C686.853 0.0175781 746.657 59.6685 746.657 133.009C746.657 206.349 686.853 266 613.325 266ZM426.661 212.803H613.325C657.431 212.803 693.324 177.002 693.324 133.009C693.324 89.0152 657.431 53.214 613.325 53.214H426.661V212.803Z" fill="white"/>
<path d="M1173.32 79.8122C1173.32 35.8188 1137.43 0.0175781 1093.32 0.0175781H799.992V53.214H1093.32C1108.02 53.214 1119.99 65.1478 1119.99 79.8122C1119.99 94.4767 1108.02 106.41 1093.32 106.41H799.992V266H1093.32C1137.43 266 1173.32 230.199 1173.32 186.205C1173.32 165.778 1165.59 147.141 1152.88 133.009C1165.57 118.876 1173.32 100.24 1173.32 79.8122ZM1093.32 212.803H853.325V159.607H1093.32C1108.02 159.607 1119.99 171.541 1119.99 186.205C1119.99 200.87 1108.02 212.803 1093.32 212.803Z" fill="white"/>
<path d="M1363.66 0.0175781L1180.32 266H1245.05L1395.33 47.9653L1536.5 266H1599.98L1427.77 0.0175781H1363.66Z" fill="white"/>
</g>
</svg>
