<svg width="88" height="49" viewBox="0 0 88 49" fill="none" xmlns="http://www.w3.org/2000/svg">
<g clip-path="url(#clip0_945_4044)">
<path d="M84.3565 31.9274C84.3779 31.7665 84.4164 31.6099 84.4721 31.4575C84.5278 31.3051 84.6048 31.1696 84.7076 31.0511C84.8104 30.9326 84.9346 30.8395 85.0801 30.7633C85.2257 30.6913 85.4013 30.6532 85.5983 30.6532C85.7952 30.6532 85.9494 30.6871 86.0864 30.7506C86.2234 30.8183 86.3391 30.9072 86.4333 31.0215C86.5275 31.1358 86.6003 31.2712 86.6474 31.4279C86.6987 31.5845 86.7202 31.7496 86.7202 31.9232H84.3479L84.3565 31.9274ZM83.196 33.6207C83.3074 33.9635 83.4787 34.2641 83.7142 34.5139C83.9454 34.7678 84.2409 34.9668 84.6006 35.1065C84.9602 35.2462 85.3799 35.3182 85.8638 35.3182C86.0522 35.3182 86.2406 35.3055 86.4204 35.2885C86.6045 35.2674 86.7715 35.242 86.93 35.2123C87.0884 35.1827 87.2297 35.1446 87.3496 35.1065C87.4738 35.0684 87.568 35.0303 87.6408 34.9964L87.4738 33.9678C87.3239 34.0313 87.1227 34.0905 86.8657 34.1456C86.6088 34.2006 86.3262 34.2302 86.0179 34.2302C85.4912 34.2302 85.0887 34.1117 84.8104 33.8704C84.532 33.6291 84.3779 33.2905 84.3436 32.8545H87.9791C87.9876 32.7867 87.9919 32.7063 87.9962 32.6216C87.9962 32.537 88.0005 32.4565 88.0005 32.3888C88.0005 31.466 87.7864 30.7717 87.3625 30.3061C86.9385 29.8404 86.3476 29.6076 85.5854 29.6076C85.2643 29.6076 84.9474 29.6669 84.6391 29.7896C84.3308 29.9124 84.0567 30.0902 83.8169 30.3315C83.5771 30.5728 83.3887 30.8691 83.2431 31.2331C83.0976 31.5972 83.029 32.012 83.029 32.4946C83.029 32.9052 83.0847 33.282 83.196 33.6249M81.9157 27.5757C81.7616 27.436 81.5774 27.3683 81.3676 27.3683C81.1578 27.3683 80.9651 27.4402 80.811 27.5757C80.6568 27.7154 80.5797 27.9059 80.5797 28.1472C80.5797 28.3884 80.6568 28.5705 80.811 28.7102C80.9651 28.8499 81.1535 28.9176 81.3676 28.9176C81.5817 28.9176 81.7616 28.8499 81.9157 28.7102C82.0699 28.5705 82.1469 28.3842 82.1469 28.1472C82.1469 27.9101 82.0699 27.7154 81.9157 27.5757ZM82.0099 29.7431H80.7339V35.1912H82.0099V29.7431ZM76.2891 27.1058L75.0131 27.3132V35.1869H76.2891V32.6894C76.4775 32.8291 76.6702 32.9984 76.8672 33.1931C77.0642 33.3921 77.2569 33.5995 77.4453 33.8238C77.6337 34.0482 77.8135 34.2768 77.9763 34.5096C78.139 34.7467 78.2888 34.971 78.413 35.1869H79.886C79.7619 34.9499 79.6034 34.6959 79.4107 34.4165C79.2223 34.1371 79.0168 33.8619 78.8027 33.5826C78.5843 33.3032 78.3616 33.0407 78.1304 32.7952C77.8992 32.5497 77.6765 32.338 77.4667 32.1644C77.8606 31.7708 78.2503 31.3644 78.64 30.9453C79.0296 30.5304 79.3979 30.1241 79.749 29.7388H78.2417C78.1304 29.8701 77.9934 30.0267 77.8349 30.2002C77.6765 30.378 77.5095 30.5601 77.334 30.7506C77.1584 30.9411 76.9785 31.1315 76.7987 31.322C76.6146 31.5125 76.4433 31.6903 76.2848 31.8597V27.1016L76.2891 27.1058ZM70.8081 34.1794C70.5426 34.1117 70.32 34.0355 70.1273 33.9593L69.9046 35.0091C70.0245 35.0599 70.2301 35.1234 70.5255 35.2039C70.821 35.2843 71.2106 35.3224 71.6945 35.3224C72.4182 35.3224 72.9748 35.1869 73.3645 34.9202C73.7542 34.6536 73.9511 34.2599 73.9511 33.7392C73.9511 33.4979 73.9212 33.2862 73.8569 33.1127C73.7927 32.9391 73.6942 32.7825 73.5572 32.647C73.4202 32.5116 73.2489 32.3888 73.0348 32.283C72.825 32.1771 72.568 32.0671 72.264 31.957C72.0799 31.8935 71.9257 31.8343 71.8016 31.775C71.6774 31.7157 71.5746 31.6565 71.4975 31.5972C71.4205 31.5379 71.3648 31.4744 71.3348 31.4067C71.3048 31.339 71.2877 31.2585 71.2877 31.1654C71.2877 30.9834 71.3691 30.8522 71.5275 30.7633C71.6902 30.6744 71.9001 30.632 72.1613 30.632C72.4482 30.632 72.7008 30.6574 72.9192 30.7082C73.1376 30.759 73.3174 30.8183 73.4544 30.8818L73.6857 29.8616C73.5401 29.8066 73.3174 29.7473 73.0219 29.688C72.7265 29.6288 72.4182 29.5991 72.0927 29.5991C71.4547 29.5991 70.9494 29.7431 70.5769 30.0309C70.2044 30.3188 70.0202 30.7125 70.0202 31.212C70.0202 31.4702 70.0588 31.6861 70.1401 31.8639C70.2215 32.0417 70.3328 32.1941 70.4741 32.3168C70.6154 32.4396 70.7824 32.5497 70.9751 32.6428C71.1678 32.7359 71.3819 32.8248 71.6132 32.9095C71.99 33.0492 72.264 33.1762 72.431 33.2947C72.5937 33.4132 72.6794 33.5614 72.6794 33.7434C72.6794 33.9381 72.6023 34.0736 72.4482 34.154C72.294 34.2345 72.0456 34.2726 71.7116 34.2726C71.3776 34.2726 71.0736 34.2387 70.8124 34.1667M68.7399 27.5757C68.5858 27.436 68.4016 27.3683 68.1918 27.3683C67.982 27.3683 67.7893 27.4402 67.6351 27.5757C67.481 27.7154 67.4039 27.9059 67.4039 28.1472C67.4039 28.3884 67.481 28.5705 67.6351 28.7102C67.7893 28.8499 67.9777 28.9176 68.1918 28.9176C68.4059 28.9176 68.5858 28.8499 68.7399 28.7102C68.8941 28.5705 68.9711 28.3842 68.9711 28.1472C68.9711 27.9101 68.8941 27.7154 68.7399 27.5757ZM68.3246 36.6135C68.6628 36.2749 68.8341 35.7499 68.8341 35.043V29.7431H67.5581V35.0218C67.5581 35.3605 67.4981 35.6187 67.3782 35.788C67.2583 35.9574 67.0528 36.042 66.7573 36.042C66.5389 36.042 66.3548 36.0166 66.2007 35.9701L66.0337 36.9987C66.1579 37.0453 66.3034 37.0792 66.4704 37.0961C66.6332 37.113 66.7616 37.1215 66.8558 37.1215C67.4938 37.1215 67.9863 36.9522 68.3246 36.6093M62.6723 31.9274C62.6937 31.7665 62.7322 31.6099 62.7879 31.4575C62.8436 31.3051 62.9249 31.1696 63.0234 31.0511C63.1262 30.9326 63.2504 30.8395 63.3959 30.7633C63.5415 30.6913 63.7171 30.6532 63.9141 30.6532C64.111 30.6532 64.2652 30.6871 64.4022 30.7506C64.5392 30.8183 64.6549 30.9072 64.7491 31.0215C64.8433 31.1358 64.9161 31.2712 64.9632 31.4279C65.0103 31.5845 65.036 31.7496 65.036 31.9232H62.6637L62.6723 31.9274ZM61.5161 33.6207C61.6275 33.9635 61.7987 34.2641 62.0343 34.5139C62.2655 34.7678 62.5609 34.9668 62.9163 35.1065C63.276 35.2462 63.6957 35.3182 64.1796 35.3182C64.368 35.3182 64.5564 35.3055 64.7362 35.2885C64.9203 35.2674 65.0873 35.242 65.2458 35.2123C65.4042 35.1827 65.5455 35.1446 65.6654 35.1065C65.7896 35.0684 65.8838 35.0303 65.9566 34.9964L65.7896 33.9678C65.6397 34.0313 65.4385 34.0905 65.1858 34.1456C64.9289 34.2006 64.6463 34.2302 64.338 34.2302C63.8113 34.2302 63.4088 34.1117 63.1304 33.8704C62.8521 33.6291 62.698 33.2905 62.6594 32.8545H66.2949C66.3034 32.7867 66.3077 32.7063 66.312 32.6216C66.312 32.537 66.3163 32.4565 66.3163 32.3888C66.3163 31.466 66.1022 30.7717 65.6783 30.3061C65.2543 29.8404 64.6634 29.6076 63.9055 29.6076C63.5844 29.6076 63.2675 29.6669 62.9592 29.7896C62.6509 29.9124 62.3768 30.0902 62.137 30.3315C61.8972 30.5728 61.7045 30.8691 61.5632 31.2331C61.4176 31.593 61.3491 32.012 61.3491 32.4946C61.3491 32.9052 61.4048 33.282 61.5161 33.6249M60.2615 31.2882C60.133 30.9368 59.9446 30.6405 59.7048 30.3907C59.4608 30.1452 59.1696 29.9547 58.827 29.8235C58.4845 29.6923 58.0948 29.6245 57.658 29.6245C57.2212 29.6245 56.8359 29.6542 56.4591 29.7177C56.078 29.7812 55.7611 29.8447 55.4999 29.9166V37.113H56.7759V35.0007C56.9172 35.0769 57.0971 35.1488 57.3112 35.2081C57.5296 35.2716 57.7693 35.3012 58.0263 35.3012C58.4117 35.3012 58.7585 35.2293 59.0625 35.0938C59.3665 34.9541 59.6235 34.7594 59.8247 34.5096C60.0303 34.2599 60.1844 33.9635 60.2957 33.6122C60.4028 33.2651 60.4585 32.8841 60.4585 32.465C60.4585 32.0459 60.3942 31.6353 60.2615 31.2839M58.8313 33.7519C58.6172 34.0651 58.2789 34.2218 57.8165 34.2218C57.6066 34.2218 57.4054 34.1879 57.2213 34.1244C57.0371 34.0567 56.8873 33.9889 56.7759 33.9127V30.7971C56.9001 30.7633 57.0286 30.7421 57.1613 30.7294C57.2898 30.7167 57.4139 30.7125 57.5338 30.7125C58.1033 30.7125 58.5144 30.8691 58.7713 31.1823C59.0283 31.4956 59.1567 31.9316 59.1567 32.4946C59.1567 33.0238 59.0497 33.4429 58.8356 33.7561M52.6695 33.7604C52.4339 34.0778 52.1042 34.2387 51.6846 34.2387C51.2649 34.2387 50.9352 34.0778 50.6997 33.7604C50.4642 33.4429 50.3486 33.0068 50.3486 32.4565C50.3486 31.9062 50.4642 31.4871 50.6997 31.1696C50.9352 30.8522 51.2607 30.6955 51.6846 30.6955C52.1085 30.6955 52.4339 30.8522 52.6695 31.1696C52.905 31.4871 53.0206 31.9147 53.0206 32.4565C53.0206 32.9984 52.9007 33.4386 52.6695 33.7604ZM54.1296 31.2882C54.0012 30.9368 53.8213 30.6363 53.5858 30.3865C53.3546 30.1368 53.0762 29.9463 52.7465 29.8108C52.4211 29.6753 52.0614 29.6076 51.676 29.6076C51.2906 29.6076 50.9352 29.6753 50.6141 29.8108C50.2929 29.9463 50.0103 30.1368 49.7748 30.3865C49.5393 30.6363 49.3552 30.9368 49.2267 31.2882C49.0982 31.6395 49.0297 32.029 49.0297 32.4608C49.0297 32.8926 49.094 33.282 49.2267 33.6376C49.3552 33.9932 49.535 34.2937 49.7705 34.5435C50.0018 34.7932 50.2801 34.988 50.6055 35.1277C50.9267 35.2674 51.2864 35.3351 51.6803 35.3351C52.0743 35.3351 52.4339 35.2674 52.7594 35.1277C53.0848 34.988 53.3631 34.7932 53.5944 34.5435C53.8256 34.2937 54.0054 33.9932 54.1339 33.6376C54.2581 33.282 54.3223 32.8926 54.3223 32.4608C54.3223 32.029 54.2581 31.6395 54.1253 31.2882M48.6272 29.815C48.563 29.7939 48.4816 29.7727 48.3746 29.7473C48.2675 29.7219 48.1605 29.7007 48.0491 29.6838C47.9378 29.6669 47.8222 29.6542 47.7109 29.6415C47.5995 29.633 47.501 29.6245 47.4154 29.6245C46.9658 29.6245 46.5547 29.6626 46.1865 29.7431C45.8182 29.8235 45.5099 29.9082 45.2658 29.9971V35.1827H46.5419V30.8183C46.6061 30.7971 46.7174 30.7717 46.8759 30.7463C47.0343 30.7209 47.1842 30.704 47.3212 30.704C47.5653 30.704 47.7837 30.7209 47.9678 30.759C48.1519 30.7971 48.2975 30.8352 48.4046 30.8691L48.6272 29.8066V29.815ZM43.8185 29.7431H42.5425V34.1498C42.4568 34.171 42.3283 34.1879 42.1571 34.2006C41.9858 34.2133 41.8231 34.2218 41.6689 34.2218C41.2407 34.2218 40.941 34.099 40.7697 33.845C40.5984 33.5953 40.5128 33.1762 40.5128 32.5962V29.7431H39.2367V32.7952C39.2367 33.1635 39.2753 33.5021 39.3523 33.8111C39.4294 34.1202 39.5579 34.3869 39.7377 34.607C39.9176 34.8313 40.1574 35.0007 40.4528 35.1277C40.7526 35.2547 41.1208 35.3139 41.5619 35.3139C42.0329 35.3139 42.4654 35.2801 42.8593 35.2166C43.2533 35.1488 43.5701 35.0853 43.8185 35.0218V29.7431ZM38.3204 35.1869V34.0736H34.7063V31.9613H37.6995V30.8691H34.7063V29.0869H38.0677V27.9736H33.3789V35.1912H38.3204V35.1869Z" fill="white"/>
<path d="M73.6514 19.93C73.6728 19.7691 73.7114 19.6125 73.767 19.4601C73.8227 19.3077 73.8998 19.1722 74.0025 19.0537C74.1053 18.9352 74.2295 18.8421 74.3751 18.7659C74.5207 18.6939 74.6962 18.6558 74.8932 18.6558C75.0902 18.6558 75.2443 18.6897 75.3813 18.7532C75.5184 18.8209 75.634 18.9098 75.7282 19.0241C75.8224 19.1384 75.8952 19.2738 75.9423 19.4305C75.9937 19.5871 76.0151 19.7522 76.0151 19.9258H73.6428L73.6514 19.93ZM72.491 21.6233C72.6023 21.9661 72.7736 22.2667 73.0091 22.5207C73.2403 22.7747 73.5358 22.9736 73.8955 23.1133C74.2552 23.2573 74.6748 23.325 75.1587 23.325C75.3471 23.325 75.5355 23.3165 75.7153 23.2954C75.8995 23.2742 76.0665 23.2488 76.2249 23.2149C76.3833 23.1853 76.5246 23.1472 76.6445 23.1091C76.7687 23.071 76.8629 23.0329 76.9357 22.999L76.7687 21.9704C76.6231 22.0339 76.4219 22.0931 76.165 22.1482C75.908 22.2032 75.6254 22.2328 75.3171 22.2328C74.7904 22.2328 74.3879 22.1143 74.1096 21.873C73.8312 21.6317 73.6771 21.2931 73.6428 20.8571H77.2783C77.2868 20.7893 77.2911 20.7089 77.2954 20.6242C77.2954 20.5396 77.2997 20.4591 77.2997 20.3914C77.2997 19.4686 77.0856 18.7743 76.6617 18.3087C76.2377 17.843 75.6468 17.6102 74.8846 17.6102C74.5635 17.6102 74.2466 17.6695 73.9383 17.7922C73.63 17.915 73.3559 18.0928 73.1161 18.3341C72.8764 18.5754 72.6837 18.8717 72.5424 19.2357C72.3968 19.5956 72.3283 20.0189 72.3283 20.4972C72.3283 20.9079 72.3839 21.2846 72.4953 21.6275M71.5917 17.7414H67.4082V18.7955H69.9474C69.759 19.0156 69.5406 19.2781 69.3009 19.5744C69.0568 19.8707 68.8127 20.1882 68.5686 20.5184C68.3246 20.8486 68.0848 21.1745 67.8535 21.5047C67.6223 21.8349 67.4296 22.1312 67.2755 22.4106V23.1938H71.656V22.1439H68.8127C69.0225 21.8265 69.258 21.4878 69.5235 21.1407C69.789 20.7893 70.0502 20.4549 70.3071 20.1289C70.5683 19.8072 70.8124 19.5109 71.0394 19.2484C71.2663 18.986 71.4504 18.7786 71.5917 18.6346V17.7499V17.7414ZM63.4174 22.1778C63.1519 22.1101 62.9292 22.0339 62.7365 21.9577L62.5138 23.0075C62.6337 23.0541 62.8393 23.1218 63.1347 23.2022C63.4302 23.2827 63.8199 23.3208 64.3037 23.3208C65.0274 23.3208 65.5841 23.1853 65.9737 22.9186C66.3634 22.6519 66.5604 22.2582 66.5604 21.7376C66.5604 21.4963 66.5304 21.2846 66.4662 21.111C66.4019 20.9375 66.3034 20.7851 66.1664 20.6454C66.0294 20.5099 65.8581 20.3872 65.644 20.2813C65.4342 20.1755 65.1773 20.0654 64.8775 19.9554C64.6934 19.8919 64.5392 19.8326 64.4151 19.7734C64.2866 19.7141 64.1838 19.6548 64.111 19.5956C64.034 19.5363 63.9783 19.4728 63.9483 19.4008C63.9183 19.3331 63.9012 19.2527 63.9012 19.1595C63.9012 18.9775 63.9826 18.8463 64.1453 18.7574C64.308 18.6727 64.5178 18.6262 64.779 18.6262C65.0659 18.6262 65.3186 18.6516 65.537 18.7024C65.7553 18.7532 65.9352 18.8124 66.0765 18.8759L66.3077 17.8557C66.1621 17.8007 65.9395 17.7414 65.644 17.6822C65.3485 17.6229 65.0402 17.5933 64.7191 17.5933C64.0811 17.5933 63.5758 17.7372 63.2033 18.0251C62.8307 18.3129 62.6466 18.7066 62.6466 19.2061C62.6466 19.4643 62.6851 19.6802 62.7665 19.858C62.8478 20.0358 62.9592 20.184 63.0962 20.311C63.2375 20.4337 63.4045 20.5438 63.5972 20.6369C63.7899 20.7301 64.004 20.819 64.2352 20.9036C64.612 21.0433 64.8861 21.1703 65.0531 21.2888C65.2158 21.4074 65.3014 21.5555 65.3014 21.7376C65.3014 21.9323 65.2244 22.0677 65.0702 22.1482C64.9161 22.2286 64.6677 22.2667 64.3337 22.2667C63.9997 22.2667 63.6957 22.2328 63.4345 22.1609M61.4305 17.7414H60.1544V22.1482C60.0688 22.1693 59.9403 22.1863 59.7691 22.199C59.5978 22.2117 59.4351 22.2201 59.2809 22.2201C58.8527 22.2201 58.553 22.0974 58.3817 21.8476C58.2104 21.5979 58.1248 21.1788 58.1248 20.5988V17.7457H56.8487V20.7978C56.8487 21.1661 56.8873 21.5047 56.9643 21.8138C57.0414 22.1228 57.1699 22.3895 57.3497 22.6096C57.5296 22.8297 57.7694 23.0033 58.0648 23.1303C58.3646 23.2573 58.7328 23.3165 59.1739 23.3165C59.6449 23.3165 60.0774 23.2827 60.4713 23.2192C60.8653 23.1514 61.1821 23.0879 61.4305 23.0287V17.7499V17.7414ZM55.4528 15.1084L54.1767 15.3158V17.9319C54.0311 17.8557 53.8556 17.788 53.65 17.7245C53.4445 17.661 53.209 17.6314 52.9435 17.6314C52.5496 17.6314 52.2027 17.6991 51.8987 17.8346C51.5989 17.97 51.342 18.1648 51.1322 18.4145C50.9224 18.6643 50.7597 18.9648 50.6526 19.3162C50.5456 19.6675 50.4899 20.057 50.4899 20.4888C50.4899 20.9206 50.5541 21.3185 50.6826 21.6698C50.8111 22.0212 50.9995 22.3175 51.2393 22.5673C51.4833 22.8128 51.7745 23.0033 52.1171 23.1345C52.4596 23.2657 52.8493 23.3335 53.2861 23.3335C53.7228 23.3335 54.1082 23.3038 54.4936 23.2403C54.8747 23.1768 55.1916 23.1091 55.4485 23.0329V15.1169L55.4528 15.1084ZM52.1171 19.1807C52.3312 18.8675 52.6695 18.7108 53.1319 18.7108C53.3417 18.7108 53.543 18.7447 53.7271 18.8082C53.9112 18.8759 54.0611 18.9437 54.1724 19.0199V22.1439C54.0825 22.1651 53.9626 22.182 53.8213 22.199C53.6757 22.2159 53.5044 22.2244 53.2989 22.2244C52.8279 22.2244 52.4596 22.0677 52.1941 21.7503C51.9287 21.4328 51.7959 20.9967 51.7959 20.4422C51.7959 19.8877 51.903 19.4855 52.1171 19.1722M44.782 23.1895H46.058V18.7955C46.1436 18.7828 46.2721 18.7659 46.4477 18.7447C46.6232 18.7235 46.7902 18.7151 46.9529 18.7151C47.1713 18.7151 47.3555 18.7447 47.5053 18.804C47.6552 18.8632 47.7751 18.9564 47.865 19.0834C47.9549 19.2103 48.0149 19.3797 48.0534 19.5829C48.092 19.7861 48.1091 20.0358 48.1091 20.3279V23.1938H49.3851V20.1332C49.3851 19.7649 49.3466 19.4262 49.2738 19.1172C49.201 18.8082 49.0725 18.5457 48.8927 18.3256C48.7129 18.1055 48.4731 17.9362 48.169 17.8134C47.865 17.6906 47.4925 17.6314 47.0429 17.6314C46.5633 17.6314 46.1308 17.661 45.7368 17.7245C45.3429 17.788 45.026 17.8515 44.7777 17.9235V23.1938L44.782 23.1895ZM43.3346 17.7414H42.0586V22.1482C41.9729 22.1693 41.8445 22.1863 41.6732 22.199C41.5019 22.2117 41.3392 22.2201 41.185 22.2201C40.7568 22.2201 40.4571 22.0974 40.2858 21.8476C40.1145 21.5979 40.0289 21.1788 40.0289 20.5988V17.7457H38.7529V20.7978C38.7529 21.1661 38.7914 21.5047 38.8685 21.8138C38.9455 22.1228 39.074 22.3895 39.2539 22.6096C39.4337 22.8297 39.6692 23.0033 39.969 23.1303C40.2687 23.2573 40.6369 23.3165 41.078 23.3165C41.549 23.3165 41.9815 23.2827 42.3755 23.2192C42.7694 23.1514 43.0863 23.0879 43.3346 23.0287V17.7499V17.7414ZM34.7063 23.1895V20.0443H37.6224V18.931H34.7063V17.0853H37.9949V15.972H33.3789V23.1895H34.7063Z" fill="white"/>
<path d="M17.9546 18.2581C17.9546 18.2581 18.447 21.4965 17.218 23.4946C15.9249 25.5984 11.7713 28.2315 11.7713 28.2315C11.7713 28.2315 16.3616 27.351 17.2566 28.7606C18.2072 30.2719 18.3314 35.5295 18.3314 35.5295C18.3314 35.5295 20.6694 29.2136 22.7932 28.3542C23.2086 28.1807 23.7224 28.0198 24.2748 27.8632V48.6862L0 44.1863V35.5337C1.25035 36.3719 2.22237 40.3892 2.22237 40.3892C2.22237 40.3892 3.61832 34.1241 5.62659 32.4181C7.57919 30.746 11.7756 28.2273 11.7756 28.2273C11.7756 28.2273 8.06306 28.1468 7.44217 26.6567C6.85125 25.2556 8.41847 21.4372 8.41847 21.4372C8.41847 21.4372 5.44674 24.9762 3.48557 26.1361C2.58635 26.6694 1.22894 26.517 0.00428203 26.1869V8.19162L24.2748 0.69043V19.0497C23.4356 19.5704 22.6134 19.9853 21.9925 20.1038C20.0399 20.4763 17.9546 18.2624 17.9546 18.2624V18.2581ZM8.41419 21.4415C8.41419 21.4415 12.1481 17.8814 13.664 17.5977C15.2055 17.3141 17.9588 18.2624 17.9588 18.2624C17.9588 18.2624 16.4644 15.6335 17.5306 14.2535C18.5498 12.9285 21.1404 10.5029 21.1404 10.5029C21.1404 10.5029 17.8561 11.8152 16.6271 11.5104C15.4367 11.2183 15.1413 9.16949 15.1413 9.16949C15.1413 9.16949 13.968 11.6459 12.6277 12.8397C11.236 14.0757 8.05022 14.8504 8.05022 14.8504C8.05022 14.8504 10.4824 15.2907 10.6237 16.5225C10.765 17.8179 8.41847 21.4499 8.41847 21.4499" fill="white"/>
</g>
<defs>
<clipPath id="clip0_945_4044">
<rect width="88" height="48" fill="white" transform="translate(0 0.80957)"/>
</clipPath>
</defs>
</svg>
