<svg width="141" height="34" viewBox="0 0 141 34" fill="none" xmlns="http://www.w3.org/2000/svg">
<g clip-path="url(#clip0_945_4049)">
<path d="M62.0545 8.94781C61.7368 8.94781 61.4453 8.96107 61.1799 8.98428V11.6729H61.8318C62.1954 11.6729 62.5131 11.6531 62.7915 11.6133C63.07 11.5735 63.2993 11.5006 63.486 11.3978C63.6694 11.295 63.8103 11.1558 63.9085 10.9801C64.0035 10.8044 64.0494 10.5789 64.0494 10.3071C64.0494 10.0518 64.0035 9.8363 63.9085 9.66059C63.8135 9.48488 63.676 9.34564 63.4991 9.23955C63.3222 9.13678 63.1126 9.06053 62.8636 9.01743C62.6179 8.97433 62.3493 8.95113 62.0578 8.95113M61.9497 7.6416C63.1355 7.6416 64.0428 7.86041 64.6718 8.30134C65.3007 8.73895 65.6151 9.41195 65.6151 10.317C65.6151 11.4442 65.0648 12.2067 63.9675 12.6078C64.1182 12.7935 64.2885 13.0156 64.4785 13.2808C64.6685 13.5461 64.8618 13.8312 65.0583 14.1395C65.2548 14.4478 65.4448 14.7628 65.625 15.0877C65.8084 15.4125 65.9689 15.7275 66.113 16.0424H64.4392C64.2885 15.754 64.1247 15.4623 63.9511 15.1739C63.7775 14.8821 63.6039 14.597 63.4237 14.3218C63.2469 14.0467 63.07 13.7881 62.8964 13.5427C62.7228 13.3007 62.559 13.0819 62.4083 12.8896C62.2969 12.8996 62.2019 12.9029 62.1233 12.9029H61.1767V16.0491H59.6797V7.85378C60.0433 7.77421 60.4331 7.71785 60.8425 7.69133C61.252 7.66481 61.6189 7.65155 61.9432 7.65155" fill="white"/>
<path d="M71.6351 10.7848C71.4746 10.9505 71.2715 11.1892 71.0127 11.4909C70.7572 11.7959 70.4821 12.1341 70.1873 12.5054C69.8958 12.8767 69.6009 13.2646 69.3061 13.669C69.0081 14.0735 68.7427 14.4581 68.5069 14.8261H71.7072V16.0361H66.7773V15.1377C66.951 14.8161 67.1704 14.468 67.4292 14.0934C67.6912 13.7188 67.9598 13.3408 68.235 12.9596C68.5134 12.5816 68.7886 12.217 69.0605 11.8755C69.3323 11.5307 69.578 11.229 69.7909 10.9771H66.9346V9.76367H71.6417V10.7848H71.6351Z" fill="white"/>
<path d="M76.6555 12.2834C76.6555 12.0845 76.6293 11.8922 76.5736 11.7132C76.5212 11.5342 76.4393 11.375 76.3312 11.2457C76.2231 11.1131 76.0921 11.0104 75.9382 10.9341C75.7842 10.8579 75.6008 10.8214 75.3879 10.8214C75.1749 10.8214 74.9718 10.8645 74.8048 10.9474C74.641 11.0336 74.5002 11.143 74.3855 11.2789C74.2709 11.4148 74.1824 11.5706 74.1202 11.7463C74.0547 11.9221 74.0154 12.1044 73.9892 12.2867H76.6588L76.6555 12.2834ZM72.4922 12.9332C72.4922 12.3829 72.5708 11.8989 72.7346 11.4811C72.8951 11.0634 73.1113 10.7186 73.3799 10.4435C73.6518 10.1683 73.9564 9.95943 74.3069 9.82019C74.6541 9.68095 75.0112 9.61133 75.3748 9.61133C76.2297 9.61133 76.8946 9.87986 77.3729 10.4169C77.8511 10.954 78.0903 11.753 78.0903 12.8172C78.0903 12.9001 78.0903 12.9896 78.0837 13.089C78.0804 13.1885 78.0739 13.2813 78.0673 13.3576H73.9761C74.0154 13.8615 74.1922 14.2527 74.5034 14.5278C74.8146 14.8063 75.2699 14.9423 75.8628 14.9423C76.21 14.9423 76.5278 14.9091 76.816 14.8461C77.1043 14.7831 77.3336 14.7135 77.4974 14.6406L77.6874 15.8274C77.6087 15.8672 77.4974 15.9103 77.3598 15.9534C77.2222 15.9965 77.0617 16.0363 76.8881 16.0728C76.7079 16.1092 76.518 16.1391 76.3116 16.1623C76.1085 16.1855 75.8956 16.1987 75.6859 16.1987C75.1389 16.1987 74.6639 16.1158 74.261 15.9534C73.8581 15.7876 73.5273 15.5622 73.2652 15.2671C73.0032 14.9754 72.8132 14.6339 72.6854 14.2361C72.5577 13.8416 72.4955 13.4073 72.4955 12.9332" fill="white"/>
<path d="M79.2617 12.9065C79.2617 12.4423 79.3338 12.008 79.4779 11.6036C79.6188 11.1991 79.8219 10.8477 80.0872 10.5527C80.3525 10.2576 80.6768 10.0255 81.0535 9.85645C81.4335 9.68737 81.8593 9.60449 82.3343 9.60449C82.9173 9.60449 83.4709 9.71058 83.995 9.92939L83.6871 11.1162C83.5201 11.0433 83.3333 10.9836 83.1237 10.9372C82.9141 10.8875 82.6913 10.8643 82.4522 10.8643C81.8888 10.8643 81.463 11.04 81.1714 11.398C80.8799 11.7528 80.7325 12.2567 80.7325 12.9032C80.7325 13.5496 80.8701 14.0237 81.1485 14.3851C81.4236 14.7498 81.8888 14.9321 82.5472 14.9321C82.7929 14.9321 83.032 14.9056 83.2711 14.8592C83.5102 14.8128 83.7133 14.7498 83.8869 14.6801L84.0867 15.8803C83.9295 15.9598 83.6904 16.0328 83.3694 16.0958C83.0516 16.1621 82.7208 16.1919 82.3801 16.1919C81.8495 16.1919 81.3909 16.109 80.9978 15.9466C80.608 15.7808 80.2837 15.5554 80.0282 15.2603C79.7694 14.9686 79.5795 14.6205 79.4517 14.216C79.324 13.8115 79.2617 13.3739 79.2617 12.9032" fill="white"/>
<path d="M89.5414 10.7848C89.3841 10.9505 89.1745 11.1892 88.919 11.4909C88.6635 11.7959 88.3883 12.1341 88.0968 12.5054C87.8053 12.8767 87.5105 13.2646 87.2124 13.669C86.9176 14.0735 86.649 14.4581 86.4099 14.8261H89.6134V16.0361H84.6836V15.1377C84.8572 14.8161 85.0734 14.468 85.3355 14.0934C85.5942 13.7188 85.8628 13.3408 86.1413 12.9596C86.4164 12.5816 86.6916 12.217 86.9634 11.8755C87.2386 11.5307 87.481 11.229 87.6939 10.9771H84.8343V9.76367H89.5414V10.7848Z" fill="white"/>
<path d="M95.0583 12.9328C95.0583 12.2864 94.9141 11.7791 94.6259 11.4211C94.3376 11.0597 93.8725 10.8807 93.2337 10.8807C93.0994 10.8807 92.9586 10.8873 92.8144 10.8973C92.667 10.9105 92.5229 10.9371 92.3821 10.9769V14.564C92.5098 14.6501 92.6769 14.733 92.8865 14.8093C93.0962 14.8855 93.3189 14.9253 93.5547 14.9253C94.0756 14.9253 94.4621 14.7463 94.7012 14.3849C94.9403 14.0269 95.0615 13.5395 95.0615 12.9328M96.5258 12.9063C96.5258 13.387 96.4668 13.828 96.3423 14.2258C96.2178 14.6269 96.0442 14.9684 95.8149 15.2568C95.5856 15.5453 95.2974 15.7707 94.9534 15.9298C94.6095 16.089 94.2197 16.1718 93.784 16.1718C93.4892 16.1718 93.2206 16.1354 92.9782 16.0624C92.7326 15.9895 92.5327 15.9099 92.3722 15.8204V18.2571H90.9375V9.9657C91.229 9.88613 91.5894 9.80988 92.0152 9.74026C92.4443 9.66733 92.8931 9.63086 93.368 9.63086C93.843 9.63086 94.295 9.70711 94.6848 9.85961C95.0714 10.0121 95.4022 10.2309 95.6741 10.5127C95.946 10.7978 96.1556 11.1426 96.303 11.5438C96.4504 11.9482 96.5225 12.4024 96.5225 12.9063" fill="white"/>
<path d="M102.145 12.8971C102.145 12.2739 102.014 11.7799 101.749 11.4152C101.483 11.0505 101.113 10.8682 100.638 10.8682C100.163 10.8682 99.7932 11.0505 99.5312 11.4152C99.2691 11.7799 99.1348 12.2705 99.1348 12.8971C99.1348 13.5237 99.2691 14.0276 99.5312 14.3989C99.7965 14.7669 100.167 14.9493 100.638 14.9493C101.11 14.9493 101.48 14.7636 101.749 14.3989C102.014 14.0309 102.145 13.5303 102.145 12.8971ZM103.616 12.8971C103.616 13.3944 103.544 13.8453 103.403 14.2531C103.262 14.6608 103.059 15.0089 102.797 15.2974C102.535 15.5858 102.22 15.8079 101.857 15.9704C101.49 16.1295 101.084 16.2091 100.638 16.2091C100.193 16.2091 99.7932 16.1295 99.4296 15.9704C99.066 15.8112 98.7549 15.5858 98.4928 15.2974C98.2307 15.0089 98.0277 14.6608 97.8835 14.2531C97.7361 13.8453 97.6641 13.3944 97.6641 12.8971C97.6641 12.3998 97.7361 11.9523 97.8835 11.5478C98.0277 11.1434 98.234 10.7986 98.4994 10.5101C98.7647 10.2217 99.0759 9.9996 99.446 9.84378C99.8063 9.68796 100.206 9.6084 100.642 9.6084C101.077 9.6084 101.477 9.68465 101.847 9.84378C102.214 9.9996 102.528 10.2217 102.787 10.5101C103.046 10.7986 103.252 11.1434 103.4 11.5478C103.544 11.9523 103.619 12.4032 103.619 12.8971" fill="white"/>
<path d="M106.649 14.9957C107.029 14.9957 107.307 14.9493 107.481 14.8598C107.654 14.7669 107.743 14.6111 107.743 14.3857C107.743 14.1768 107.648 14.0044 107.461 13.8718C107.274 13.7359 106.966 13.5867 106.541 13.4276C106.279 13.3314 106.039 13.2287 105.823 13.1192C105.604 13.0132 105.417 12.8872 105.26 12.7413C105.103 12.5954 104.978 12.423 104.886 12.2175C104.795 12.012 104.752 11.7633 104.752 11.4683C104.752 10.8914 104.958 10.4405 105.381 10.1057C105.8 9.77416 106.37 9.6084 107.091 9.6084C107.455 9.6084 107.802 9.64155 108.133 9.71117C108.467 9.78079 108.716 9.8471 108.883 9.91009L108.621 11.0837C108.463 11.0107 108.26 10.9444 108.015 10.8848C107.772 10.8251 107.487 10.7953 107.163 10.7953C106.871 10.7953 106.632 10.845 106.452 10.9444C106.269 11.0439 106.177 11.1997 106.177 11.4053C106.177 11.508 106.193 11.6009 106.229 11.6804C106.265 11.76 106.328 11.8362 106.413 11.9026C106.501 11.9689 106.613 12.0385 106.757 12.1048C106.898 12.1711 107.075 12.2407 107.278 12.3136C107.618 12.4429 107.907 12.5689 108.142 12.6916C108.382 12.8142 108.578 12.9568 108.729 13.1093C108.879 13.2651 108.997 13.4441 109.066 13.6464C109.138 13.8453 109.174 14.0873 109.174 14.3658C109.174 14.9658 108.955 15.42 108.516 15.7284C108.077 16.0367 107.451 16.1892 106.639 16.1892C106.095 16.1892 105.653 16.1428 105.322 16.0532C104.991 15.9604 104.759 15.8875 104.621 15.8311L104.87 14.6177C105.083 14.7073 105.338 14.7901 105.633 14.8697C105.928 14.9526 106.269 14.989 106.645 14.989" fill="white"/>
<path d="M114.632 12.9328C114.632 12.2864 114.485 11.7791 114.2 11.4211C113.912 11.0597 113.447 10.8807 112.808 10.8807C112.674 10.8807 112.533 10.8873 112.385 10.8973C112.241 10.9105 112.097 10.9371 111.956 10.9769V14.564C112.081 14.6501 112.248 14.733 112.461 14.8093C112.67 14.8855 112.893 14.9253 113.129 14.9253C113.653 14.9253 114.03 14.7463 114.275 14.3849C114.518 14.0269 114.636 13.5395 114.636 12.9328M116.103 12.9063C116.103 13.387 116.041 13.828 115.92 14.2258C115.799 14.6269 115.622 14.9684 115.392 15.2568C115.166 15.5453 114.875 15.7707 114.534 15.9298C114.19 16.089 113.8 16.1718 113.368 16.1718C113.073 16.1718 112.808 16.1354 112.559 16.0624C112.313 15.9895 112.113 15.9099 111.956 15.8204V18.2571H110.521V9.9657C110.813 9.88613 111.173 9.80988 111.599 9.74026C112.028 9.66733 112.477 9.63086 112.952 9.63086C113.427 9.63086 113.882 9.70711 114.269 9.85961C114.652 10.0121 114.983 10.2309 115.258 10.5127C115.53 10.7978 115.74 11.1426 115.887 11.5438C116.034 11.9482 116.106 12.4024 116.106 12.9063" fill="white"/>
<path d="M121.723 12.8971C121.723 12.2739 121.589 11.7799 121.327 11.4152C121.062 11.0505 120.691 10.8682 120.216 10.8682C119.741 10.8682 119.371 11.0505 119.109 11.4152C118.844 11.7799 118.713 12.2705 118.713 12.8971C118.713 13.5237 118.844 14.0276 119.109 14.3989C119.375 14.7669 119.745 14.9493 120.216 14.9493C120.688 14.9493 121.062 14.7636 121.327 14.3989C121.589 14.0309 121.723 13.5303 121.723 12.8971ZM123.194 12.8971C123.194 13.3944 123.122 13.8453 122.981 14.2531C122.837 14.6608 122.637 15.0089 122.375 15.2974C122.113 15.5858 121.799 15.8079 121.432 15.9704C121.065 16.1295 120.659 16.2091 120.216 16.2091C119.774 16.2091 119.371 16.1295 119.008 15.9704C118.644 15.8112 118.333 15.5858 118.071 15.2974C117.809 15.0089 117.606 14.6608 117.462 14.2531C117.314 13.8453 117.242 13.3944 117.242 12.8971C117.242 12.3998 117.314 11.9523 117.462 11.5478C117.606 11.1434 117.812 10.7986 118.077 10.5101C118.343 10.2217 118.657 9.9996 119.018 9.84378C119.381 9.68796 119.781 9.6084 120.216 9.6084C120.652 9.6084 121.052 9.68465 121.422 9.84378C121.789 9.9996 122.103 10.2217 122.362 10.5101C122.624 10.7986 122.827 11.1434 122.971 11.5478C123.119 11.9523 123.191 12.4032 123.191 12.8971" fill="white"/>
<path d="M126.834 16.1587C126.405 16.1521 126.054 16.1024 125.773 16.0162C125.491 15.93 125.268 15.804 125.104 15.6382C124.937 15.4758 124.819 15.2702 124.754 15.0249C124.685 14.7796 124.652 14.5011 124.652 14.1928V8.04632L126.087 7.80762V13.9176C126.087 14.0933 126.1 14.2425 126.126 14.3619C126.156 14.4812 126.205 14.584 126.277 14.6669C126.346 14.7498 126.444 14.8127 126.565 14.8592C126.69 14.9023 126.844 14.9387 127.034 14.9619L126.834 16.162V16.1587Z" fill="white"/>
<path d="M129.64 16.0396H128.205V9.76379H129.64V16.0396ZM129.797 7.92714C129.797 8.19899 129.709 8.41448 129.539 8.57361C129.365 8.73274 129.159 8.81231 128.923 8.81231C128.687 8.81231 128.471 8.73274 128.297 8.57361C128.124 8.41448 128.035 8.19899 128.035 7.92714C128.035 7.65529 128.124 7.42654 128.297 7.2674C128.471 7.10496 128.68 7.02539 128.923 7.02539C129.165 7.02539 129.365 7.10496 129.539 7.2674C129.712 7.42654 129.797 7.64534 129.797 7.92714Z" fill="white"/>
<path d="M131.398 8.04632L132.833 7.80762V9.76362H135.037V10.977H132.833V13.5331C132.833 14.037 132.911 14.395 133.068 14.6105C133.226 14.8293 133.497 14.9354 133.874 14.9354C134.136 14.9354 134.369 14.9089 134.569 14.8525C134.772 14.7962 134.929 14.7431 135.047 14.6967L135.286 15.8504C135.119 15.92 134.899 15.9963 134.631 16.0725C134.362 16.1488 134.045 16.1853 133.684 16.1853C133.242 16.1853 132.872 16.1256 132.577 16.0062C132.279 15.8869 132.043 15.7112 131.87 15.4824C131.693 15.2537 131.575 14.9785 131.503 14.6536C131.431 14.3287 131.395 13.9607 131.395 13.543V8.043L131.398 8.04632Z" fill="white"/>
<path d="M138.605 15.0222C139.047 15.0222 139.384 14.9957 139.614 14.9493V13.3414C139.532 13.3182 139.421 13.295 139.27 13.2684C139.119 13.2452 138.952 13.232 138.772 13.232C138.615 13.232 138.454 13.2452 138.294 13.2684C138.133 13.295 137.986 13.3381 137.855 13.401C137.727 13.464 137.622 13.5535 137.544 13.6729C137.465 13.7889 137.426 13.9348 137.426 14.1105C137.426 14.4553 137.534 14.6907 137.747 14.8233C137.96 14.9559 138.251 15.0222 138.611 15.0222M138.487 9.6084C138.962 9.6084 139.362 9.66807 139.686 9.78742C140.01 9.91009 140.269 10.0758 140.462 10.2913C140.655 10.5068 140.793 10.7721 140.878 11.0804C140.96 11.3887 140.999 11.7235 140.999 12.0948V15.8974C140.78 15.9438 140.446 16.0035 139.997 16.0731C139.548 16.1394 139.047 16.1759 138.484 16.1759C138.114 16.1759 137.773 16.1394 137.465 16.0665C137.157 15.9936 136.892 15.8775 136.676 15.7184C136.456 15.5593 136.289 15.3504 136.168 15.0951C136.043 14.8399 135.984 14.5249 135.984 14.147C135.984 13.769 136.053 13.4839 136.191 13.2353C136.328 12.9866 136.518 12.7844 136.754 12.6286C136.99 12.4728 137.265 12.3601 137.576 12.2938C137.888 12.2274 138.215 12.191 138.556 12.191C138.713 12.191 138.88 12.2009 139.05 12.2208C139.224 12.2407 139.411 12.2739 139.611 12.3236V12.0849C139.611 11.9158 139.591 11.7567 139.552 11.6042C139.512 11.4517 139.443 11.3158 139.342 11.203C139.244 11.087 139.113 10.9975 138.952 10.9312C138.792 10.8682 138.585 10.835 138.343 10.835C138.012 10.835 137.707 10.8616 137.429 10.908C137.154 10.9544 136.928 11.0107 136.754 11.0771L136.574 9.90014C136.754 9.83715 137.019 9.77416 137.367 9.70786C137.714 9.64155 138.084 9.61171 138.48 9.61171" fill="white"/>
<path d="M62.1128 20.0738C61.7361 20.0738 61.4249 20.087 61.176 20.1103V22.9448H61.9032C62.6205 22.9448 63.1741 22.842 63.5639 22.6365C63.9504 22.4342 64.1437 22.0464 64.1437 21.4795C64.1437 21.2076 64.0913 20.9789 63.9865 20.7965C63.8849 20.6109 63.7408 20.4683 63.5606 20.3622C63.3805 20.2594 63.1643 20.1865 62.9121 20.1401C62.6631 20.097 62.3978 20.0738 62.1128 20.0738ZM62.008 18.7676C63.2003 18.7676 64.1142 18.9864 64.753 19.4273C65.3917 19.8682 65.7062 20.5545 65.7062 21.4927C65.7062 21.9801 65.621 22.3978 65.454 22.7459C65.2836 23.094 65.0347 23.3791 64.7137 23.5979C64.3894 23.82 63.993 23.9792 63.5279 24.0852C63.0595 24.1913 62.5288 24.2411 61.9261 24.2411H61.1792V27.1684H59.6855V18.9731C60.0328 18.8936 60.4193 18.8372 60.8418 18.8107C61.2644 18.7842 61.6542 18.7676 62.0112 18.7676" fill="white"/>
<path d="M70.9244 24.0231C70.9244 23.3998 70.7934 22.9059 70.5248 22.5412C70.2595 22.1765 69.8893 21.9942 69.4144 21.9942C68.9394 21.9942 68.5725 22.1732 68.3072 22.5412C68.0419 22.9059 67.9109 23.3998 67.9109 24.0231C67.9109 24.6464 68.0451 25.1569 68.3072 25.5216C68.5725 25.8896 68.9427 26.0752 69.4144 26.0752C69.8861 26.0752 70.2595 25.8896 70.5248 25.5216C70.7901 25.1536 70.9244 24.653 70.9244 24.0231ZM72.3952 24.0231C72.3952 24.5171 72.3231 24.9713 72.1823 25.379C72.0414 25.7868 71.8416 26.1349 71.5796 26.4233C71.3208 26.7118 71.0063 26.9339 70.6362 27.0963C70.2693 27.2555 69.8631 27.335 69.4209 27.335C68.9787 27.335 68.5758 27.2555 68.2122 27.0963C67.8453 26.9372 67.5342 26.7118 67.2754 26.4233C67.0133 26.1349 66.807 25.7868 66.6628 25.379C66.5154 24.9713 66.4434 24.5204 66.4434 24.0231C66.4434 23.5258 66.5154 23.0749 66.6628 22.6738C66.807 22.2693 67.0166 21.9246 67.2786 21.6361C67.544 21.3477 67.8584 21.1256 68.222 20.9698C68.5856 20.8139 68.982 20.7344 69.4176 20.7344C69.8533 20.7344 70.2529 20.8139 70.6231 20.9698C70.99 21.1256 71.3044 21.3477 71.5665 21.6361C71.8285 21.9246 72.0316 22.2693 72.179 22.6738C72.3231 23.0749 72.3985 23.5258 72.3985 24.0231" fill="white"/>
<path d="M76.0364 27.2884C75.6073 27.2818 75.2568 27.2321 74.9751 27.1459C74.6934 27.0564 74.4707 26.9304 74.3036 26.7679C74.1398 26.6022 74.0219 26.3999 73.9531 26.1546C73.8876 25.9126 73.8516 25.6341 73.8516 25.3225V19.1893L75.2863 18.9473V25.044C75.2863 25.2197 75.3027 25.3689 75.3289 25.4883C75.3551 25.6076 75.4075 25.7104 75.4763 25.7933C75.5483 25.8761 75.6433 25.9391 75.7678 25.9855C75.889 26.0286 76.043 26.0618 76.2362 26.0883L76.0364 27.2884Z" fill="white"/>
<path d="M78.9547 26.1244C79.3347 26.1244 79.6099 26.078 79.7835 25.9851C79.9571 25.8923 80.0455 25.7332 80.0455 25.5111C80.0455 25.3022 79.9538 25.1298 79.7671 24.9939C79.5804 24.858 79.2725 24.7088 78.8466 24.5496C78.5846 24.4535 78.3455 24.3507 78.1293 24.2413C77.9098 24.1319 77.7231 24.0093 77.5659 23.8634C77.4053 23.7208 77.2841 23.5451 77.1924 23.3429C77.1007 23.1373 77.0549 22.8887 77.0549 22.5936C77.0549 22.0168 77.2645 21.5626 77.6838 21.2311C78.1031 20.8995 78.673 20.7305 79.3904 20.7305C79.754 20.7305 80.1012 20.7669 80.4353 20.8332C80.7662 20.9029 81.0151 20.9692 81.1822 21.0322L80.9201 22.2091C80.7629 22.1361 80.5598 22.0698 80.3174 22.0102C80.0717 21.9505 79.7867 21.9206 79.4625 21.9206C79.1709 21.9206 78.9318 21.9704 78.7516 22.0698C78.5715 22.1693 78.4798 22.3251 78.4798 22.5306C78.4798 22.6334 78.4961 22.7262 78.5322 22.8058C78.5682 22.8854 78.6272 22.9583 78.7156 23.0279C78.8008 23.0976 78.9187 23.1639 79.0563 23.2302C79.2004 23.2998 79.374 23.3661 79.5771 23.4423C79.9178 23.5716 80.206 23.6943 80.4451 23.8203C80.681 23.9429 80.8775 24.0855 81.0348 24.238C81.1887 24.3938 81.3001 24.5728 81.3721 24.7718C81.4409 24.974 81.477 25.2127 81.477 25.4912C81.477 26.0912 81.2575 26.5454 80.8186 26.8537C80.3796 27.1621 79.754 27.3179 78.9383 27.3179C78.3946 27.3179 77.9557 27.2715 77.6248 27.1786C77.2907 27.0858 77.0581 27.0129 76.9238 26.9565L77.1728 25.7464C77.3857 25.8326 77.6412 25.9188 77.936 25.9984C78.2341 26.078 78.5715 26.1177 78.9515 26.1177" fill="white"/>
<path d="M84.2498 23.34C84.4333 23.151 84.6265 22.9421 84.8329 22.7233C85.0392 22.5012 85.2423 22.2824 85.4389 22.0636C85.6354 21.8448 85.8221 21.6326 86.0023 21.4271C86.1792 21.2248 86.3331 21.0458 86.4576 20.8933H88.1511C87.758 21.3409 87.342 21.805 86.9064 22.2857C86.4674 22.7664 86.0285 23.2339 85.5863 23.6881C85.8221 23.887 86.0743 24.129 86.3331 24.4141C86.5919 24.6992 86.8474 25.0009 87.0931 25.3192C87.3355 25.6408 87.5648 25.959 87.7777 26.2806C87.9906 26.6022 88.1675 26.8972 88.3116 27.1691H86.6509C86.51 26.9204 86.3462 26.6619 86.1595 26.39C85.9728 26.1182 85.773 25.8529 85.5601 25.5977C85.3472 25.3424 85.1277 25.1004 84.9082 24.8716C84.6855 24.6429 84.4693 24.4506 84.2531 24.2881V27.1691H82.8184V19.1893L84.2531 18.9473V23.34H84.2498Z" fill="white"/>
<path d="M91.5326 26.1482C91.9748 26.1482 92.309 26.125 92.5415 26.0752V24.4673C92.4596 24.4408 92.3483 24.4176 92.1943 24.3944C92.0436 24.3712 91.8766 24.3579 91.6964 24.3579C91.5392 24.3579 91.3787 24.3712 91.2182 24.3944C91.0544 24.4176 90.9103 24.4607 90.776 24.527C90.6449 24.5933 90.5434 24.6828 90.4615 24.7956C90.3829 24.9116 90.3436 25.0575 90.3436 25.2332C90.3436 25.578 90.4517 25.8167 90.6679 25.9459C90.8775 26.0786 91.169 26.1449 91.5326 26.1449M91.4147 20.7344C91.8897 20.7344 92.286 20.794 92.6136 20.9167C92.9379 21.0361 93.1967 21.2051 93.3899 21.4206C93.5832 21.6361 93.7208 21.898 93.8059 22.2063C93.8878 22.5147 93.9304 22.8528 93.9304 23.2208V27.0267C93.7109 27.0731 93.3735 27.1328 92.928 27.1991C92.4793 27.2687 91.9781 27.3019 91.4147 27.3019C91.0446 27.3019 90.7039 27.2654 90.3927 27.1958C90.0848 27.1229 89.8227 27.0068 89.6033 26.8477C89.3871 26.6886 89.2167 26.4797 89.0955 26.2244C88.9711 25.9692 88.9121 25.6542 88.9121 25.2763C88.9121 24.8983 88.9809 24.6132 89.1185 24.3646C89.2561 24.1159 89.446 23.917 89.6819 23.7579C89.9177 23.6021 90.1929 23.4893 90.5041 23.423C90.8185 23.3534 91.1395 23.3203 91.4802 23.3203C91.6374 23.3203 91.8045 23.3302 91.9781 23.3501C92.1517 23.37 92.3384 23.4032 92.5382 23.4529V23.2109C92.5382 23.0418 92.5186 22.8827 92.476 22.7302C92.4367 22.5777 92.3679 22.445 92.2696 22.329C92.1681 22.213 92.0404 22.1235 91.8766 22.0572C91.7161 21.9942 91.513 21.961 91.2673 21.961C90.9365 21.961 90.6318 21.9842 90.3534 22.034C90.0782 22.0804 89.8522 22.1367 89.6786 22.203L89.4985 21.0261C89.6819 20.9631 89.9472 20.8968 90.2944 20.8338C90.6416 20.7708 91.0118 20.7377 91.4081 20.7377" fill="white"/>
<path d="M48.8562 0.69043H0V17.1937H48.8562V0.69043Z" fill="white"/>
<path d="M48.8562 17.1934H0V33.69H48.8562V17.1934Z" fill="#B61F2B"/>
<path d="M0.153955 0.846246H48.7055V33.5346H0.153955V0.846246ZM0 33.6904H48.8562V0.69043H0V33.6904Z" fill="#878787"/>
</g>
<defs>
<clipPath id="clip0_945_4049">
<rect width="141" height="33" fill="white" transform="translate(0 0.80957)"/>
</clipPath>
</defs>
</svg>
