<svg width="33" height="34" viewBox="0 0 33 34" fill="none" xmlns="http://www.w3.org/2000/svg">
<g clip-path="url(#clip0_945_3974)">
<path d="M24.2637 5.84668H8.84426C7.25012 5.84668 5.95312 7.14368 5.95312 8.73782V24.1572C5.95312 25.7514 7.25012 27.0484 8.84426 27.0484H24.2637C25.8578 27.0484 27.1548 25.7514 27.1548 24.1572V8.73782C27.1548 7.14368 25.8578 5.84668 24.2637 5.84668ZM16.554 23.1935C12.8346 23.1935 9.80798 20.1669 9.80798 16.4475C9.80798 12.7282 12.8346 9.70153 16.554 9.70153C20.2733 9.70153 23.3 12.7282 23.3 16.4475C23.3 20.1669 20.2733 23.1935 16.554 23.1935ZM23.3 11.629C22.2374 11.629 21.3725 10.7641 21.3725 9.70153C21.3725 8.63894 22.2374 7.77411 23.3 7.77411C24.3626 7.77411 25.2274 8.63894 25.2274 9.70153C25.2274 10.7641 24.3626 11.629 23.3 11.629Z" fill="#C74D2B"/>
<path d="M16.5529 11.6289C13.8962 11.6289 11.7344 13.7907 11.7344 16.4475C11.7344 19.1042 13.8962 21.266 16.5529 21.266C19.2097 21.266 21.3715 19.1042 21.3715 16.4475C21.3715 13.7907 19.2097 11.6289 16.5529 11.6289Z" fill="#C74D2B"/>
<path d="M28.1174 0H4.98828C2.33155 0 0.105469 2.22608 0.105469 4.88281V28.0119C0.105469 30.6687 2.33155 32.8947 4.98828 32.8947H28.1174C30.7741 32.8947 33.0002 30.6687 33.0002 28.0119V4.88281C33.0002 2.22608 30.7741 0 28.1174 0ZM29.0811 24.1571C29.0811 26.8138 26.9193 28.9756 24.2625 28.9756H8.84313C6.1864 28.9756 4.02457 26.8138 4.02457 24.1571V8.73767C4.02457 6.08093 6.1864 3.9191 8.84313 3.9191H24.2625C26.9193 3.9191 29.0811 6.08093 29.0811 8.73767V24.1571Z" fill="#C74D2B"/>
</g>
<defs>
<clipPath id="clip0_945_3974">
<rect width="32.8947" height="32.8525" fill="white" transform="translate(0.105469 0.902344)"/>
</clipPath>
</defs>
</svg>
