<svg width="33" height="34" viewBox="0 0 33 34" fill="none" xmlns="http://www.w3.org/2000/svg">
<path d="M28.4599 0.902344H4.53643C3.34676 0.902344 2.20582 1.37433 1.3646 2.21447C0.523375 3.05461 0.0507813 4.19409 0.0507812 5.38223L0.0507813 29.275C0.0507813 30.4631 0.523375 31.6026 1.3646 32.4427C2.20582 33.2829 3.34676 33.7549 4.53643 33.7549H28.4599C29.6495 33.7549 30.7905 33.2829 31.6317 32.4427C32.4729 31.6026 32.9455 30.4631 32.9455 29.275V5.38223C32.9455 4.19409 32.4729 3.05461 31.6317 2.21447C30.7905 1.37433 29.6495 0.902344 28.4599 0.902344ZM11.2649 26.9006C11.2651 26.9917 11.2474 27.082 11.2127 27.1662C11.1779 27.2504 11.1269 27.327 11.0625 27.3915C10.9981 27.456 10.9215 27.5072 10.8373 27.5421C10.753 27.577 10.6627 27.595 10.5715 27.595H7.61657C7.5252 27.5953 7.43468 27.5775 7.35021 27.5427C7.26574 27.5078 7.189 27.4567 7.12439 27.3922C7.05978 27.3276 7.00857 27.251 6.97372 27.1666C6.93886 27.0823 6.92105 26.9919 6.9213 26.9006V14.5287C6.9213 14.3445 6.99455 14.1679 7.12494 14.0377C7.25533 13.9074 7.43217 13.8343 7.61657 13.8343H10.5715C10.7556 13.8348 10.9319 13.9082 11.0619 14.0383C11.1919 14.1685 11.2649 14.3448 11.2649 14.5287V26.9006ZM9.0931 12.662C8.53861 12.662 7.99658 12.4978 7.53554 12.1902C7.0745 11.8825 6.71517 11.4452 6.50297 10.9336C6.29078 10.422 6.23526 9.85901 6.34344 9.31588C6.45161 8.77275 6.71862 8.27385 7.1107 7.88227C7.50278 7.49069 8.00232 7.22402 8.54615 7.11599C9.08999 7.00795 9.65368 7.0634 10.166 7.27532C10.6782 7.48724 11.1161 7.84612 11.4241 8.30656C11.7322 8.76701 11.8966 9.30834 11.8966 9.86212C11.8966 10.6047 11.6013 11.3169 11.0755 11.842C10.5497 12.3671 9.83664 12.662 9.0931 12.662ZM26.7105 26.9492C26.7107 27.0331 26.6944 27.1162 26.6623 27.1938C26.6303 27.2713 26.5832 27.3418 26.5238 27.4011C26.4644 27.4604 26.3938 27.5075 26.3162 27.5395C26.2385 27.5714 26.1553 27.5878 26.0713 27.5875H22.8939C22.8099 27.5878 22.7267 27.5714 22.649 27.5395C22.5714 27.5075 22.5008 27.4604 22.4414 27.4011C22.382 27.3418 22.3349 27.2713 22.3029 27.1938C22.2708 27.1162 22.2545 27.0331 22.2547 26.9492V21.1533C22.2547 20.2872 22.5089 17.3603 19.9876 17.3603C18.0345 17.3603 17.6364 19.3632 17.5579 20.2629V26.9566C17.5579 27.1243 17.4918 27.2853 17.374 27.4048C17.2561 27.5242 17.0959 27.5926 16.928 27.595H13.8591C13.7752 27.595 13.6922 27.5785 13.6148 27.5464C13.5373 27.5143 13.467 27.4672 13.4078 27.4079C13.3486 27.3486 13.3017 27.2782 13.2697 27.2008C13.2378 27.1233 13.2215 27.0404 13.2218 26.9566V14.4745C13.2215 14.3908 13.2378 14.3078 13.2697 14.2304C13.3017 14.1529 13.3486 14.0825 13.4078 14.0232C13.467 13.9639 13.5373 13.9169 13.6148 13.8848C13.6922 13.8527 13.7752 13.8362 13.8591 13.8362H16.928C17.0976 13.8362 17.2601 13.9034 17.38 14.0231C17.4999 14.1429 17.5672 14.3052 17.5672 14.4745V15.5534C18.2924 14.4652 19.3671 13.629 21.6604 13.629C26.7404 13.629 26.7067 18.3664 26.7067 20.9685L26.7105 26.9492Z" fill="#C74D2B"/>
</svg>
