<svg width="32" height="32" viewBox="0 0 32 32" fill="none" xmlns="http://www.w3.org/2000/svg">
<path d="M6.51172 10.2448C6.51172 5.01442 10.7677 0.758423 15.9981 0.758423C21.2285 0.758423 25.4845 5.01442 25.4845 10.2448C25.4845 14.3296 24.0141 15.4416 15.9981 26.2608C7.99972 15.4656 6.51172 14.3312 6.51172 10.2448Z" stroke="#C74D2B" stroke-width="1.5" stroke-linecap="round" stroke-linejoin="round"/>
<path d="M15.9983 14.04C13.9055 14.04 12.2031 12.3376 12.2031 10.2448C12.2031 8.15198 13.9055 6.44958 15.9983 6.44958C18.0911 6.44958 19.7935 8.15198 19.7935 10.2448C19.7935 12.3376 18.0911 14.04 15.9983 14.04Z" stroke="#C74D2B" stroke-width="1.5" stroke-linecap="round" stroke-linejoin="round"/>
<path d="M17.8877 23.728C22.2205 24.0784 25.4845 25.6112 25.4845 27.448C25.4845 29.544 21.2381 31.2432 15.9981 31.2432C10.7581 31.2432 6.51172 29.544 6.51172 27.448C6.51172 25.6112 9.77412 24.08 14.1085 23.728" stroke="#C74D2B" stroke-width="1.5" stroke-linecap="round" stroke-linejoin="round"/>
</svg>
