<svg width="32" height="32" viewBox="0 0 32 32" fill="none" xmlns="http://www.w3.org/2000/svg">
<g clip-path="url(#clip0_938_837)">
<path d="M31.0986 14.976C31.0986 7.20316 24.7962 0.900757 17.0234 0.900757" stroke="#C74D2B" stroke-width="1.5" stroke-linecap="round" stroke-linejoin="round"/>
<path d="M20.8618 14.976C20.8618 12.856 19.1434 11.1376 17.0234 11.1376" stroke="#C74D2B" stroke-width="1.5" stroke-linecap="round" stroke-linejoin="round"/>
<path d="M25.9802 14.976C25.9802 10.0288 21.9706 6.01917 17.0234 6.01917" stroke="#C74D2B" stroke-width="1.5" stroke-linecap="round" stroke-linejoin="round"/>
<path d="M19.792 19.5345L17.44 21.8865C17.44 21.8865 15.7184 21.4241 13.152 18.8593C10.5872 16.2945 10.1136 14.5169 10.1136 14.5169L12.4432 12.1873L5.44324 5.18726L0.90244 9.72966C0.90244 9.72966 0.790439 16.3681 8.22724 23.8049C15.664 31.2417 22.1424 31.0977 22.1424 31.0977L26.7488 26.4913L19.792 19.5345Z" stroke="#C74D2B" stroke-width="1.5" stroke-linecap="round" stroke-linejoin="round"/>
</g>
<defs>
<clipPath id="clip0_938_837">
<rect width="32" height="32" fill="white"/>
</clipPath>
</defs>
</svg>
